<svg width="716" height="131" viewBox="0 0 716 131" fill="none" xmlns="http://www.w3.org/2000/svg">
<path d="M55.9199 98.68L0.879883 71.16V58.36L55.9199 30.84V41.976L16.2399 61.432C14.6186 62.2 13.0826 62.8827 11.6319 63.48C10.2666 63.992 9.24255 64.3333 8.55988 64.504C9.32788 64.6747 10.4372 65.0587 11.8879 65.656C13.3386 66.168 14.7892 66.808 16.2399 67.576L55.9199 87.16V98.68Z" fill="#18181B"/>
<path d="M95.4219 108.28C89.7899 108.28 84.8832 107.213 80.7019 105.08C76.6059 102.947 73.4059 99.8747 71.1019 95.864C68.8832 91.768 67.7739 86.9467 67.7739 81.4V39.16C67.7739 33.528 68.8832 28.7067 71.1019 24.696C73.4059 20.6853 76.6059 17.6133 80.7019 15.48C84.8832 13.3467 89.7899 12.28 95.4219 12.28C101.054 12.28 105.918 13.3893 110.014 15.608C114.11 17.7413 117.267 20.8133 119.486 24.824C121.705 28.8347 122.814 33.6133 122.814 39.16H111.294C111.294 33.8693 109.886 29.816 107.07 27C104.339 24.0987 100.457 22.648 95.4219 22.648C90.3872 22.648 86.4192 24.056 83.5179 26.872C80.7019 29.688 79.2939 33.7413 79.2939 39.032V81.4C79.2939 86.6907 80.7019 90.7867 83.5179 93.688C86.4192 96.5894 90.3872 98.04 95.4219 98.04C100.457 98.04 104.339 96.5894 107.07 93.688C109.886 90.7867 111.294 86.6907 111.294 81.4V69.88H92.3499V59.384H122.814V81.4C122.814 86.8613 121.705 91.64 119.486 95.736C117.267 99.7467 114.11 102.861 110.014 105.08C105.918 107.213 101.054 108.28 95.4219 108.28Z" fill="#18181B"/>
<path d="M134.924 107V13.56H161.42C169.953 13.56 176.609 15.6933 181.388 19.96C186.252 24.2267 188.684 30.1573 188.684 37.752C188.684 42.0187 187.788 45.7307 185.996 48.888C184.204 52.0453 181.644 54.4773 178.316 56.184C175.073 57.8907 171.148 58.7013 166.54 58.616V56.696C171.489 56.6107 175.756 57.5493 179.34 59.512C183.009 61.4747 185.825 64.2907 187.788 67.96C189.836 71.6293 190.86 75.9813 190.86 81.016C190.86 86.3067 189.751 90.9147 187.532 94.84C185.313 98.7653 182.156 101.795 178.06 103.928C173.964 105.976 169.057 107 163.34 107H134.924ZM146.188 96.632H162.06C167.436 96.632 171.66 95.224 174.732 92.408C177.889 89.5067 179.468 85.5813 179.468 80.632C179.468 75.512 177.889 71.3734 174.732 68.216C171.66 64.9734 167.436 63.352 162.06 63.352H146.188V96.632ZM146.188 53.368H161.292C166.241 53.368 170.124 52.0453 172.94 49.4C175.841 46.7547 177.292 43.1707 177.292 38.648C177.292 34.1253 175.884 30.5413 173.068 27.896C170.252 25.2507 166.369 23.928 161.42 23.928H146.188V53.368Z" fill="#18181B"/>
<path d="M203.738 107V36.6H215.002V50.04H217.69L213.978 58.36C213.978 50.7653 215.599 45.048 218.842 41.208C222.17 37.2827 227.077 35.32 233.562 35.32C240.986 35.32 246.874 37.6667 251.226 42.36C255.663 46.968 257.882 53.24 257.882 61.176V65.4H246.362V62.2C246.362 56.6533 244.997 52.4293 242.266 49.528C239.621 46.5413 235.823 45.048 230.874 45.048C226.01 45.048 222.17 46.5413 219.354 49.528C216.623 52.5147 215.258 56.7387 215.258 62.2V107H203.738Z" fill="#18181B"/>
<path d="M294.44 108.024C288.808 108.024 283.944 106.957 279.848 104.824C275.752 102.691 272.552 99.6187 270.248 95.608C268.029 91.512 266.92 86.6907 266.92 81.144V62.456C266.92 56.824 268.029 52.0027 270.248 47.992C272.552 43.9813 275.752 40.9093 279.848 38.776C283.944 36.6427 288.808 35.576 294.44 35.576C300.072 35.576 304.936 36.6427 309.032 38.776C313.128 40.9093 316.285 43.9813 318.504 47.992C320.808 52.0027 321.96 56.7813 321.96 62.328V81.144C321.96 86.6907 320.808 91.512 318.504 95.608C316.285 99.6187 313.128 102.691 309.032 104.824C304.936 106.957 300.072 108.024 294.44 108.024ZM294.44 97.784C299.475 97.784 303.4 96.376 306.216 93.56C309.032 90.744 310.44 86.6053 310.44 81.144V62.456C310.44 56.9947 309.032 52.856 306.216 50.04C303.4 47.224 299.475 45.816 294.44 45.816C289.491 45.816 285.565 47.224 282.664 50.04C279.848 52.856 278.44 56.9947 278.44 62.456V81.144C278.44 86.6053 279.848 90.744 282.664 93.56C285.565 96.376 289.491 97.784 294.44 97.784Z" fill="#18181B"/>
<path d="M343.158 130.04V119.544H365.558C369.142 119.544 371.745 118.733 373.366 117.112C375.073 115.491 375.926 112.973 375.926 109.56V100.6L376.182 87.8H373.878L376.054 85.88C376.054 91 374.347 95.0533 370.934 98.04C367.521 101.027 362.955 102.52 357.238 102.52C349.985 102.52 344.267 100.173 340.086 95.48C335.905 90.7013 333.814 84.3013 333.814 76.28V61.432C333.814 53.4107 335.905 47.0533 340.086 42.36C344.267 37.6667 349.985 35.32 357.238 35.32C362.955 35.32 367.521 36.8133 370.934 39.8C374.347 42.7867 376.054 46.84 376.054 51.96L373.878 50.04H376.054V36.6H387.446V109.56C387.446 115.875 385.483 120.867 381.558 124.536C377.718 128.205 372.342 130.04 365.43 130.04H343.158ZM360.694 92.536C365.473 92.536 369.227 91.0427 371.958 88.056C374.689 85.0693 376.054 80.9307 376.054 75.64V62.2C376.054 56.9093 374.689 52.7707 371.958 49.784C369.227 46.7973 365.473 45.304 360.694 45.304C355.83 45.304 352.033 46.7547 349.302 49.656C346.657 52.5573 345.334 56.7387 345.334 62.2V75.64C345.334 81.1013 346.657 85.2827 349.302 88.184C352.033 91.0853 355.83 92.536 360.694 92.536Z" fill="#18181B"/>
<path d="M399.94 107V96.504H424.9V47.096H403.14V36.6H436.42V96.504H460.1V107H399.94ZM429.38 23.928C426.564 23.928 424.345 23.2027 422.724 21.752C421.103 20.3013 420.292 18.3387 420.292 15.864C420.292 13.304 421.103 11.2987 422.724 9.84801C424.345 8.31201 426.564 7.54401 429.38 7.54401C432.196 7.54401 434.415 8.31201 436.036 9.84801C437.657 11.2987 438.468 13.304 438.468 15.864C438.468 18.3387 437.657 20.3013 436.036 21.752C434.415 23.2027 432.196 23.928 429.38 23.928Z" fill="#18181B"/>
<path d="M493.97 108.024C488.338 108.024 483.474 106.957 479.378 104.824C475.282 102.691 472.082 99.6187 469.778 95.608C467.559 91.512 466.45 86.6907 466.45 81.144V62.456C466.45 56.824 467.559 52.0027 469.778 47.992C472.082 43.9813 475.282 40.9093 479.378 38.776C483.474 36.6427 488.338 35.576 493.97 35.576C499.602 35.576 504.466 36.6427 508.562 38.776C512.658 40.9093 515.815 43.9813 518.034 47.992C520.338 52.0027 521.49 56.7813 521.49 62.328V81.144C521.49 86.6907 520.338 91.512 518.034 95.608C515.815 99.6187 512.658 102.691 508.562 104.824C504.466 106.957 499.602 108.024 493.97 108.024ZM493.97 97.784C499.005 97.784 502.93 96.376 505.746 93.56C508.562 90.744 509.97 86.6053 509.97 81.144V62.456C509.97 56.9947 508.562 52.856 505.746 50.04C502.93 47.224 499.005 45.816 493.97 45.816C489.021 45.816 485.095 47.224 482.194 50.04C479.378 52.856 477.97 56.9947 477.97 62.456V81.144C477.97 86.6053 479.378 90.744 482.194 93.56C485.095 96.376 489.021 97.784 493.97 97.784Z" fill="#18181B"/>
<path d="M592.38 121.08L637.82 0.76001H649.98L641.66 22.904L715.26 58.36V71.16L660.22 98.68V87.16L699.9 67.832C701.521 67.064 703.015 66.4667 704.38 66.04C705.831 65.528 706.897 65.1867 707.58 65.016C706.812 64.8453 705.702 64.5467 704.252 64.12C702.887 63.608 701.436 62.968 699.9 62.2L638.076 32.376L604.54 121.08H592.38Z" fill="#18181B"/>
</svg>
